<svg id="Capa_1" enable-background="new 0 0 512 512" height="512" viewBox="0 0 512 512" width="512" xmlns="http://www.w3.org/2000/svg" xmlns:xlink="http://www.w3.org/1999/xlink"><linearGradient id="SVGID_1_" gradientUnits="userSpaceOnUse" x1="256" x2="256" y1="512" y2="0"><stop offset="0" stop-color="#ffc2cc"/><stop offset="1" stop-color="#fff2f4"/></linearGradient><linearGradient id="SVGID_2_" gradientUnits="userSpaceOnUse" x1="256" x2="256" y1="407" y2="105"><stop offset="0" stop-color="#ffa68d"/><stop offset="1" stop-color="#fd3a84"/></linearGradient><g><g><circle cx="256" cy="256" fill="url(#SVGID_1_)" r="256"/></g><g><g><path d="m176.2 145.734-48.005 48.09h48.005zm150.733-5.205h-133v62.176c0 4.91-3.966 8.882-8.867 8.882h-62.066v186.529c0 4.91 3.966 8.882 8.867 8.882h195.067c4.901 0 8.867-3.973 8.867-8.882v-248.704c-.001-4.91-3.967-8.883-8.868-8.883zm-53.2 195.412h-88.667c-4.901 0-8.867-3.973-8.867-8.882 0-4.91 3.966-8.882 8.867-8.882h88.667c4.901 0 8.867 3.973 8.867 8.882s-3.966 8.882-8.867 8.882zm0-35.529h-88.667c-4.901 0-8.867-3.973-8.867-8.882 0-4.91 3.966-8.882 8.867-8.882h88.667c4.901 0 8.867 3.973 8.867 8.882s-3.966 8.882-8.867 8.882zm0-35.53h-88.667c-4.901 0-8.867-3.973-8.867-8.882 0-4.91 3.966-8.882 8.867-8.882h88.667c4.901 0 8.867 3.973 8.867 8.882 0 4.91-3.966 8.882-8.867 8.882zm106.4-159.882h-177.333c-4.901 0-8.867 3.973-8.867 8.882v8.882h133c14.668 0 26.6 11.953 26.6 26.647v204.294h26.6c4.901 0 8.867-3.973 8.867-8.882v-230.941c0-4.909-3.966-8.882-8.867-8.882z" fill="url(#SVGID_2_)"/></g></g></g></svg>